<?xml version="1.0" encoding="utf-8"?>
<!-- Generator: Adobe Illustrator 23.0.4, SVG Export Plug-In . SVG Version: 6.00 Build 0)  -->
<svg version="1.1" id="Calque_1" xmlns="http://www.w3.org/2000/svg" xmlns:xlink="http://www.w3.org/1999/xlink" x="0px" y="0px"
	 viewBox="0 0 100 125" style="enable-background:new 0 0 100 125;" xml:space="preserve">
<style type="text/css">
	.st0{fill:#0065FC;}
</style>
<title>A__68</title>
<path class="st0" d="M50,17C25.1,17,5,37.1,5,62s20.1,45,45,45s45-20.1,45-45C95,37.2,74.8,17,50,17z M50,99c-20.4,0-37-16.6-37-37
	s16.6-37,37-37s37,16.6,37,37C87,82.4,70.4,99,50,99z M45,37c0-2.8,2.2-5,5-5s5,2.2,5,5c0,2.8-2.2,5-5,5S45,39.8,45,37z M61,83v4
	c0,1.1-0.9,2-2,2H41c-1.1,0-2-0.9-2-2v-4c0-1.1,0.9-2,2-2h2c1.1,0,2-0.9,2-2V60c0-1.1-0.9-2-2-2h-2c-1.1,0-2-0.9-2-2v-4
	c0-1.1,0.9-2,2-2h12c1.1,0,2,0.9,2,2v27c0,1.1,0.9,2,2,2h2C60.1,81,61,81.9,61,83z"/>
</svg>
