<?xml version="1.0" encoding="utf-8"?>
<!-- Generator: Adobe Illustrator 23.0.4, SVG Export Plug-In . SVG Version: 6.00 Build 0)  -->
<svg version="1.1" id="Calque_1" xmlns="http://www.w3.org/2000/svg" xmlns:xlink="http://www.w3.org/1999/xlink" x="0px" y="0px"
	 viewBox="0 0 100 125" style="enable-background:new 0 0 100 125;" xml:space="preserve">
<style type="text/css">
	.st0{fill:#0065FC;}
</style>
<g>
	<path class="st0" d="M94.5,45.3l-5.7,5.5c0,0-5.2,4.3-14.6-2.6l-3,6L55.1,38.5L56,38l23-19.9v8.5L94.5,45.3z M17.9,42
		c-3.6,0-4.2-10-8.8-8.3C4.4,35.3,14,46.9,14,46.9v19.8v0.4v17.9c0,2.3,2.3,4.2,5,4.2c2.7,0,5-1.9,5-4.2V69.2l34,5.3v10
		c0,2.7,2.3,4.8,5,4.8c2.7,0,5-2.2,5-4.8V62.9l0.9-4l-17-17H17.9z M34.4,73.7L27,72.1v10.8c0,0,0.2,7.2,5.6,6.5
		c5.4-0.6,3.7-7.5,3.7-7.5L34.4,73.7z"/>
</g>
</svg>
