<?xml version="1.0" encoding="utf-8"?>
<!-- Generator: Adobe Illustrator 23.0.4, SVG Export Plug-In . SVG Version: 6.00 Build 0)  -->
<svg version="1.1"
	 id="Calque_1" xmlns:cc="http://creativecommons.org/ns#" xmlns:dc="http://purl.org/dc/elements/1.1/" xmlns:inkscape="http://www.inkscape.org/namespaces/inkscape" xmlns:rdf="http://www.w3.org/1999/02/22-rdf-syntax-ns#" xmlns:sodipodi="http://sodipodi.sourceforge.net/DTD/sodipodi-0.dtd" xmlns:svg="http://www.w3.org/2000/svg"
	 xmlns="http://www.w3.org/2000/svg" xmlns:xlink="http://www.w3.org/1999/xlink" x="0px" y="0px" viewBox="0 0 100 125"
	 style="enable-background:new 0 0 100 125;" xml:space="preserve">
<style type="text/css">
	.st0{fill:#0065FC;}
</style>
<g transform="translate(0,-952.36218)">
	<path class="st0" d="M69.1,966.6L42.3,982l-6.7,1.8h25.3l12.5-3.3l1.9,3.3h8.8l-2.4-8.9c-1.3-2.6-2.9-2.6-5.2-2
		C74.8,969.8,72.7,965.3,69.1,966.6z M19.9,984.9C19.9,984.9,19.9,984.9,19.9,984.9c-1.6,0.2-3,1.7-3,3.3v37c0,1.7,1.6,3.3,3.3,3.3
		h67.5c1.7,0,3.3-1.6,3.3-3.3v-37c0-1.7-1.6-3.3-3.3-3.3C65.1,984.7,42.5,985.2,19.9,984.9L19.9,984.9z M15.9,989.1l-3.4,0.9
		c-1.7,0.4-2.8,2.4-2.3,4l1.5,5.7l-1.1,0.6c-1.5,0.8-2.1,3-1.2,4.5l6.5,11.2L15.9,989.1z M23.5,991.4h3.1c0.4,0.9,0.2,1.9-0.6,2.5
		c-0.8,0.6-1.7,0.7-2.5,0.2V991.4z M33.2,991.4h41.6c-0.3,2.8,0.8,5.6,3.1,7.5c1.8,1.5,4.1,2.1,6.4,1.9h0.1v11.2
		c-2.4,0-4.9,0.7-6.5,1.9c-2.4,2-3.4,4.9-3.1,7.8H33.2c0.4-2.9-0.7-5.9-3.1-7.8c-2.2-1.4-4.4-2.1-6.6-1.9v-11.3c0.1,0,0.2,0,0.3,0
		c2.2,0.2,4.5-0.4,6.4-1.9C32.2,996.8,33.4,993.8,33.2,991.4L33.2,991.4z M81.5,991.4h2.9v2.8c-0.7,0.4-1.6,0.3-2.3-0.3
		C81.3,993.3,81.2,992.3,81.5,991.4z M54,991.4c-3.6,0-6.5,2.2-8.2,5c-1.8,2.8-2.7,6.3-2.7,10.2c0,3.8,0.9,7.3,2.7,10.1
		c1.8,2.8,4.7,5,8.2,5c3.6,0,6.4-2.2,8.2-5c1.8-2.8,2.7-6.3,2.7-10.1c0-3.8-0.9-7.4-2.7-10.2C60.4,993.7,57.5,991.4,54,991.4z
		 M54,997.9c0.7,0,1.6,0.4,2.6,1.9c1,1.5,1.8,4,1.8,6.8c0,2.8-0.8,5.2-1.8,6.8c-1,1.5-1.9,2-2.6,2c-0.7,0-1.6-0.4-2.6-2
		c-1-1.5-1.7-4-1.7-6.8s0.8-5.3,1.7-6.8C52.4,998.3,53.3,997.9,54,997.9z M26,1019.1c0.9,0.7,1,1.9,0.4,2.8h-2.9v-3
		C24.4,1018.3,25.2,1018.7,26,1019.1L26,1019.1z M84.5,1018.8v3.1h-2.8c-0.6-0.9-0.4-2.1,0.4-2.8
		C82.9,1018.4,83.6,1018.6,84.5,1018.8z M19.7,1029.4c1.1,2.2,2.6,2.9,4,2.6l1.2-0.3l2.9,5.1c0.9,1.5,3,2.1,4.5,1.2l14.7-8.5
		C35.5,1029.5,28,1029.4,19.7,1029.4L19.7,1029.4z"/>
</g>
</svg>
