<?xml version="1.0" encoding="utf-8"?>
<!-- Generator: Adobe Illustrator 23.0.4, SVG Export Plug-In . SVG Version: 6.00 Build 0)  -->
<svg version="1.1" id="Calque_1" xmlns="http://www.w3.org/2000/svg" xmlns:xlink="http://www.w3.org/1999/xlink" x="0px" y="0px"
	 viewBox="0 0 64 80" style="enable-background:new 0 0 64 80;" xml:space="preserve">
<style type="text/css">
	.st0{fill:#0065FC;}
</style>
<g>
	<path class="st0" d="M38.5,44.6c0,2.6,0.6,4.8-3,4.8h-7.1c-3.6,0-3-2.1-3-4.8V25.5c0-2.6,1.3-3,4.9-3h3.2c3.6,0,4.9,0.4,4.9,3
		L38.5,44.6L38.5,44.6z"/>
	<path class="st0" d="M47.5,13.1c0.9-1.5,0.8-3.2-0.3-3.9l0,0c-1.1-0.7-2.8-0.1-3.7,1.4l-9.9,15.6c-0.9,1.5,0.4,2.9,1.5,3.6L33.9,30
		c1.1,0.7,2.8,0.1,3.7-1.4L47.5,13.1z"/>
	<path class="st0" d="M15.7,13.1c-0.9-1.5-0.8-3.2,0.3-3.9l0,0c1.1-0.7,2.8-0.1,3.7,1.4l9.9,15.6c0.9,1.5-0.4,2.9-1.5,3.6l1.1,0.3
		c-1.1,0.7-2.8,0.1-3.7-1.4L15.7,13.1z"/>
	<circle class="st0" cx="32.1" cy="14.7" r="5.8"/>
	<path class="st0" d="M30.9,65.7c0,1.8-1.2,3.2-2.7,3.2l0,0c-1.5,0-2.7-1.4-2.7-3.2V46.2c0-1.8,1.2-2.2,2.7-2.2l0,0
		c1.5,0,2.7,1.4,2.7,3.2V65.7z"/>
	<path class="st0" d="M33,65.7c0,1.8,1.2,3.2,2.7,3.2l0,0c1.5,0,2.7-1.4,2.7-3.2V46.2c0-1.8-1.2-2.2-2.7-2.2l0,0
		c-1.5,0-2.7,1.4-2.7,3.2V65.7z"/>
</g>
</svg>
