<?xml version="1.0" encoding="utf-8"?>
<!-- Generator: Adobe Illustrator 23.0.4, SVG Export Plug-In . SVG Version: 6.00 Build 0)  -->
<svg version="1.1" id="Calque_1" xmlns="http://www.w3.org/2000/svg" xmlns:xlink="http://www.w3.org/1999/xlink" x="0px" y="0px"
	 viewBox="0 0 100 125" style="enable-background:new 0 0 100 125;" xml:space="preserve">
<style type="text/css">
	.st0{fill:#FFFFFF;}
</style>
<path class="st0" d="M84.8,80L66.1,61.3c-0.2-0.2-0.3-0.3-0.5-0.4c8.5-11.2,7.6-27.3-2.6-37.5c-11.2-11.2-29.4-11.2-40.6,0
	s-11.2,29.4,0,40.6c10.2,10.2,26.3,11.1,37.5,2.6c0.1,0.2,0.3,0.4,0.4,0.5L79,85.8c1.6,1.6,4.2,1.6,5.8,0
	C86.4,84.2,86.4,81.6,84.8,80z M27.8,58.6c-8.2-8.2-8.2-21.6,0-29.8s21.6-8.2,29.8,0s8.2,21.6,0,29.8S36,66.9,27.8,58.6z"/>
</svg>
