<?xml version="1.0" encoding="utf-8"?>
<!-- Generator: Adobe Illustrator 23.0.4, SVG Export Plug-In . SVG Version: 6.00 Build 0)  -->
<svg version="1.1"
	 id="Calque_1" xmlns:cc="http://creativecommons.org/ns#" xmlns:dc="http://purl.org/dc/elements/1.1/" xmlns:inkscape="http://www.inkscape.org/namespaces/inkscape" xmlns:rdf="http://www.w3.org/1999/02/22-rdf-syntax-ns#" xmlns:sodipodi="http://sodipodi.sourceforge.net/DTD/sodipodi-0.dtd" xmlns:svg="http://www.w3.org/2000/svg"
	 xmlns="http://www.w3.org/2000/svg" xmlns:xlink="http://www.w3.org/1999/xlink" x="0px" y="0px" viewBox="0 0 48 60"
	 style="enable-background:new 0 0 48 60;" xml:space="preserve">
<style type="text/css">
	.st0{fill:#0065FC;}
</style>
<g transform="translate(-3.6391207e-4,-16.000023)">
	<path class="st0" d="M31.6,35.3c-0.6,0-1.2,0.3-1.5,0.9l-5.4,9.3L19,43.8c-0.7-0.2-1.6,0.1-1.9,0.8L11,55c-0.5,0.8-0.2,1.8,0.6,2.3
		c0.8,0.5,1.8,0.2,2.3-0.6c0,0,0,0,0-0.1l5.4-9.3l5.7,1.7c0.8,0.2,1.6-0.1,1.9-0.8L33,37.8c0.5-0.8,0.2-1.8-0.6-2.3
		C32.2,35.3,31.9,35.3,31.6,35.3z"/>
	<path class="st0" d="M33.2,32.5c-0.2,0-0.3,0-0.5,0.1L24,34.9c-0.9,0.2-1.5,1.1-1.3,2c0.2,0.9,1.1,1.5,2,1.3c0,0,0.1,0,0.1,0
		l7.1-1.9l1.9,7.1c0.2,0.9,1.1,1.5,2,1.3s1.5-1.1,1.3-2c0,0,0-0.1,0-0.1l-2.3-8.8C34.6,33,33.9,32.5,33.2,32.5L33.2,32.5z"/>
</g>
</svg>
